{"accessors" : [{"bufferView" : 0, "byteOffset" : 0, "componentType" : 5125, "count" : 384111, "type" : "SCALAR", "max" : [171014], "min" : [0]}, {"bufferView" : 1, "byteOffset" : 0, "componentType" : 5126, "count" : 171015, "type" : "VEC3", "max" : [1.2789000272750854, 2.592529058456421, 1.914428949356079], "min" : [-0.662551999092102, 0.5678409934043884, -1.4635009765625]}, {"bufferView" : 1, "byteOffset" : 12, "componentType" : 5126, "count" : 171015, "type" : "VEC2", "max" : [1.8831210136413574, -0.6486510038375854], "min" : [0.3265550136566162, -1.8831210136413574]}, {"bufferView" : 1, "byteOffset" : 20, "componentType" : 5126, "count" : 171015, "type" : "VEC3", "max" : [1.0000044107437134, 1.0000044107437134, 1.0000044107437134], "min" : [-1.0000044107437134, -1.0000044107437134, -1.0000044107437134]}, {"bufferView" : 0, "byteOffset" : 1536444, "componentType" : 5125, "count" : 348222, "type" : "SCALAR", "max" : [98087], "min" : [0]}, {"bufferView" : 2, "byteOffset" : 0, "componentType" : 5126, "count" : 98088, "type" : "VEC3", "max" : [2.009337902069092, 2.745452880859375, 1.9124759435653687], "min" : [-0.5078319907188416, -0.41079699993133545, -1.9055180549621582]}, {"bufferView" : 2, "byteOffset" : 12, "componentType" : 5126, "count" : 98088, "type" : "VEC2", "max" : [77.67108154296875, 405.8108215332031], "min" : [0, -108.63787078857422]}, {"bufferView" : 2, "byteOffset" : 20, "componentType" : 5126, "count" : 98088, "type" : "VEC3", "max" : [1.0000044107437134, 1.0000044107437134, 1.0000044107437134], "min" : [-1.0000044107437134, -1.0000044107437134, -1.0000044107437134]}, {"bufferView" : 0, "byteOffset" : 2929332, "componentType" : 5123, "count" : 4050, "type" : "SCALAR", "max" : [4049], "min" : [0]}, {"bufferView" : 3, "byteOffset" : 0, "componentType" : 5126, "count" : 4050, "type" : "VEC3", "max" : [1.7080039978027344, 2.0563199520111084, -1.3488860130310059], "min" : [0.8313720226287842, -0.40720000863075256, -1.5902190208435059]}, {"bufferView" : 3, "byteOffset" : 12, "componentType" : 5126, "count" : 4050, "type" : "VEC2", "max" : [1.916293978691101, -0.39340201020240784], "min" : [0.7176399827003479, -1.9114279747009277]}, {"bufferView" : 3, "byteOffset" : 20, "componentType" : 5126, "count" : 4050, "type" : "VEC3", "max" : [1.0000044107437134, 1.0000044107437134, 1.0000044107437134], "min" : [-1.0000044107437134, -1.0000044107437134, -1.0000044107437134]}], "asset" : {"generator" : "Aspose.3D 21.1", "version" : "2.0"}, "buffers" : [{"uri" : "buffer.bin", "byteLength" : 26501704}], "bufferViews" : [{"buffer" : 0, "byteOffset" : 0, "byteLength" : 2937432, "target" : 34963}, {"buffer" : 0, "byteOffset" : 2937436, "byteLength" : 12291552, "byteStride" : 32, "target" : 34962}, {"buffer" : 0, "byteOffset" : 15228992, "byteLength" : 11143104, "byteStride" : 32, "target" : 34962}, {"buffer" : 0, "byteOffset" : 26372100, "byteLength" : 129600, "byteStride" : 32, "target" : 34962}], "meshes" : [{"primitives" : [{"attributes" : {"POSITION" : 1, "TEXCOORD_0" : 2, "NORMAL" : 3}, "indices" : 0, "mode" : 4}]}, {"primitives" : [{"attributes" : {"POSITION" : 5, "TEXCOORD_0" : 6, "NORMAL" : 7}, "indices" : 4, "mode" : 4}]}, {"primitives" : [{"attributes" : {"POSITION" : 9, "TEXCOORD_0" : 10, "NORMAL" : 11}, "indices" : 8, "mode" : 4}]}], "nodes" : [{"mesh" : 0, "name" : "diesel_generator"}, {"mesh" : 1, "name" : "pipe2"}, {"mesh" : 2, "name" : "pipe3"}], "scene" : 0, "scenes" : [{"nodes" : [0, 1, 2]}]}