{"accessors" : [{"bufferView" : 0, "byteOffset" : 0, "componentType" : 5123, "count" : 1134, "type" : "SCALAR", "max" : [303], "min" : [0]}, {"bufferView" : 1, "byteOffset" : 0, "componentType" : 5126, "count" : 304, "type" : "VEC3", "max" : [-9.664824485778809, -18.659372329711914, 10.039119720458984], "min" : [-21.96839714050293, -22.220800399780273, -9.672270774841309]}, {"bufferView" : 1, "byteOffset" : 12, "componentType" : 5126, "count" : 304, "type" : "VEC2", "max" : [1, -0], "min" : [0, -1]}, {"bufferView" : 1, "byteOffset" : 20, "componentType" : 5126, "count" : 304, "type" : "VEC3", "max" : [1.0000044107437134, 1.0000044107437134, 0.9991669654846191], "min" : [-1.0000044107437134, -1.0000044107437134, -0.9991669058799744]}, {"bufferView" : 0, "byteOffset" : 2268, "componentType" : 5123, "count" : 744, "type" : "SCALAR", "max" : [190], "min" : [0]}, {"bufferView" : 2, "byteOffset" : 0, "componentType" : 5126, "count" : 191, "type" : "VEC3", "max" : [21.151779174804688, -18.85951042175293, 14.132473945617676], "min" : [12.102895736694336, -22.822938919067383, -0.9920899271965027]}, {"bufferView" : 2, "byteOffset" : 12, "componentType" : 5126, "count" : 191, "type" : "VEC2", "max" : [1, -0], "min" : [0, -1]}, {"bufferView" : 2, "byteOffset" : 20, "componentType" : 5126, "count" : 191, "type" : "VEC3", "max" : [1.0000044107437134, 1.0000044107437134, 0.9927131533622742], "min" : [-0.9995276927947998, -1.0000044107437134, -0.9927131533622742]}, {"bufferView" : 0, "byteOffset" : 3756, "componentType" : 5123, "count" : 624, "type" : "SCALAR", "max" : [295], "min" : [0]}, {"bufferView" : 3, "byteOffset" : 0, "componentType" : 5126, "count" : 296, "type" : "VEC3", "max" : [24.11315155029297, -16.21312713623047, -1.393717646598816], "min" : [12.158452987670898, -24.171512603759766, -7.240106582641602]}, {"bufferView" : 3, "byteOffset" : 12, "componentType" : 5126, "count" : 296, "type" : "VEC2", "max" : [1, -0], "min" : [0, -1]}, {"bufferView" : 3, "byteOffset" : 20, "componentType" : 5126, "count" : 296, "type" : "VEC3", "max" : [1.0000044107437134, 1.0000044107437134, 1.0000044107437134], "min" : [-1.0000044107437134, -1.0000044107437134, -1.0000044107437134]}, {"bufferView" : 0, "byteOffset" : 5004, "componentType" : 5123, "count" : 3324, "type" : "SCALAR", "max" : [1285], "min" : [0]}, {"bufferView" : 4, "byteOffset" : 0, "componentType" : 5126, "count" : 1286, "type" : "VEC3", "max" : [8.69548225402832, 18.51028060913086, 25.7537841796875], "min" : [-8.66592788696289, 10.497401237487793, -15.731681823730469]}, {"bufferView" : 4, "byteOffset" : 12, "componentType" : 5126, "count" : 1286, "type" : "VEC2", "max" : [1, -0], "min" : [0, -1]}, {"bufferView" : 4, "byteOffset" : 20, "componentType" : 5126, "count" : 1286, "type" : "VEC3", "max" : [1.0000044107437134, 1.0000044107437134, 1.0000044107437134], "min" : [-1.0000044107437134, -1.0000044107437134, -1.0000044107437134]}, {"bufferView" : 0, "byteOffset" : 11652, "componentType" : 5123, "count" : 3324, "type" : "SCALAR", "max" : [1285], "min" : [0]}, {"bufferView" : 5, "byteOffset" : 0, "componentType" : 5126, "count" : 1286, "type" : "VEC3", "max" : [8.69548225402832, 18.51028060913086, 25.7537841796875], "min" : [-8.66592788696289, 10.497401237487793, -15.731681823730469]}, {"bufferView" : 5, "byteOffset" : 12, "componentType" : 5126, "count" : 1286, "type" : "VEC2", "max" : [1, -0], "min" : [0, -1]}, {"bufferView" : 5, "byteOffset" : 20, "componentType" : 5126, "count" : 1286, "type" : "VEC3", "max" : [1.0000044107437134, 1.0000044107437134, 1.0000044107437134], "min" : [-1.0000044107437134, -1.0000044107437134, -1.0000044107437134]}, {"bufferView" : 0, "byteOffset" : 18300, "componentType" : 5123, "count" : 12453, "type" : "SCALAR", "max" : [7240], "min" : [0]}, {"bufferView" : 6, "byteOffset" : 0, "componentType" : 5126, "count" : 7241, "type" : "VEC3", "max" : [9.425519943237305, 17.33441734313965, 25.766448974609375], "min" : [-9.425519943237305, -7.818394660949707, -15.791367530822754]}, {"bufferView" : 6, "byteOffset" : 12, "componentType" : 5126, "count" : 7241, "type" : "VEC2", "max" : [1, -0], "min" : [0, -1]}, {"bufferView" : 6, "byteOffset" : 20, "componentType" : 5126, "count" : 7241, "type" : "VEC3", "max" : [1.0000044107437134, 1.0000044107437134, 1.0000044107437134], "min" : [-1.0000044107437134, -1.0000044107437134, -1.0000044107437134]}, {"bufferView" : 0, "byteOffset" : 43208, "componentType" : 5123, "count" : 12453, "type" : "SCALAR", "max" : [7234], "min" : [0]}, {"bufferView" : 7, "byteOffset" : 0, "componentType" : 5126, "count" : 7235, "type" : "VEC3", "max" : [9.425519943237305, 17.33441734313965, 25.766448974609375], "min" : [-9.425519943237305, -7.818394660949707, -15.791367530822754]}, {"bufferView" : 7, "byteOffset" : 12, "componentType" : 5126, "count" : 7235, "type" : "VEC2", "max" : [1, -0], "min" : [0, -1]}, {"bufferView" : 7, "byteOffset" : 20, "componentType" : 5126, "count" : 7235, "type" : "VEC3", "max" : [1.0000044107437134, 1.0000044107437134, 1.0000044107437134], "min" : [-1.0000044107437134, -1.0000044107437134, -1.0000044107437134]}, {"bufferView" : 0, "byteOffset" : 68116, "componentType" : 5123, "count" : 486, "type" : "SCALAR", "max" : [175], "min" : [0]}, {"bufferView" : 8, "byteOffset" : 0, "componentType" : 5126, "count" : 176, "type" : "VEC3", "max" : [10.59999942779541, -6.6221418380737305, -16.124942779541016], "min" : [-2.21614300244255E-06, -27.368139266967773, -31.181873321533203]}, {"bufferView" : 8, "byteOffset" : 12, "componentType" : 5126, "count" : 176, "type" : "VEC2", "max" : [1, -0], "min" : [0, -1]}, {"bufferView" : 8, "byteOffset" : 20, "componentType" : 5126, "count" : 176, "type" : "VEC3", "max" : [1.0000044107437134, 0.9992052912712097, 0], "min" : [-0.9994152188301086, -0.9988499283790588, 0]}, {"bufferView" : 0, "byteOffset" : 69088, "componentType" : 5123, "count" : 204, "type" : "SCALAR", "max" : [72], "min" : [0]}, {"bufferView" : 9, "byteOffset" : 0, "componentType" : 5126, "count" : 73, "type" : "VEC3", "max" : [-8.723665132492897E-07, -6.6221418380737305, -16.124942779541016], "min" : [-2.177034730266314E-06, -27.368139266967773, -31.181873321533203]}, {"bufferView" : 9, "byteOffset" : 12, "componentType" : 5126, "count" : 73, "type" : "VEC2", "max" : [0.7257752418518066, -0], "min" : [0, -1]}, {"bufferView" : 9, "byteOffset" : 20, "componentType" : 5126, "count" : 73, "type" : "VEC3", "max" : [0, 0, 0], "min" : [-1.0000044107437134, 0, 0]}, {"bufferView" : 0, "byteOffset" : 69496, "componentType" : 5123, "count" : 1863, "type" : "SCALAR", "max" : [776], "min" : [0]}, {"bufferView" : 10, "byteOffset" : 0, "componentType" : 5126, "count" : 777, "type" : "VEC3", "max" : [11.87250804901123, -6.6221418380737305, -16.124942779541016], "min" : [10.599997520446777, -27.368139266967773, -31.181873321533203]}, {"bufferView" : 10, "byteOffset" : 12, "componentType" : 5126, "count" : 777, "type" : "VEC2", "max" : [1, -0], "min" : [0, -1]}, {"bufferView" : 10, "byteOffset" : 20, "componentType" : 5126, "count" : 777, "type" : "VEC3", "max" : [1.0000044107437134, 0.7484400868415833, 0.8993071913719177], "min" : [-0.7799637913703918, -0.8089907765388489, -0.834666907787323]}, {"bufferView" : 0, "byteOffset" : 73224, "componentType" : 5123, "count" : 204, "type" : "SCALAR", "max" : [72], "min" : [0]}, {"bufferView" : 11, "byteOffset" : 0, "componentType" : 5126, "count" : 73, "type" : "VEC3", "max" : [-8.723665132492897E-07, -6.6221418380737305, -16.124942779541016], "min" : [-2.177034730266314E-06, -27.368139266967773, -31.181873321533203]}, {"bufferView" : 11, "byteOffset" : 12, "componentType" : 5126, "count" : 73, "type" : "VEC2", "max" : [0.7128538489341736, -0], "min" : [0, -1]}, {"bufferView" : 11, "byteOffset" : 20, "componentType" : 5126, "count" : 73, "type" : "VEC3", "max" : [0, 0, 0], "min" : [-1.0000044107437134, 0, 0]}, {"bufferView" : 0, "byteOffset" : 73632, "componentType" : 5123, "count" : 1863, "type" : "SCALAR", "max" : [351], "min" : [0]}, {"bufferView" : 12, "byteOffset" : 0, "componentType" : 5126, "count" : 352, "type" : "VEC3", "max" : [11.87250804901123, -6.6221418380737305, -16.124942779541016], "min" : [10.599997520446777, -27.368139266967773, -31.181873321533203]}, {"bufferView" : 0, "byteOffset" : 77360, "componentType" : 5123, "count" : 360, "type" : "SCALAR", "max" : [141], "min" : [0]}, {"bufferView" : 13, "byteOffset" : 0, "componentType" : 5126, "count" : 142, "type" : "VEC3", "max" : [2.544713595398207E-07, -3.251970052719116, 16.2406005859375], "min" : [-10.20000171661377, -25.256101608276367, -21.278594970703125]}, {"bufferView" : 13, "byteOffset" : 12, "componentType" : 5126, "count" : 142, "type" : "VEC2", "max" : [1, -0], "min" : [0, -1]}, {"bufferView" : 13, "byteOffset" : 20, "componentType" : 5126, "count" : 142, "type" : "VEC3", "max" : [0.9871097803115845, 0.9999914169311523, 0], "min" : [-0.999906599521637, -0.9996318817138672, 0]}, {"bufferView" : 0, "byteOffset" : 78080, "componentType" : 5123, "count" : 174, "type" : "SCALAR", "max" : [59], "min" : [0]}, {"bufferView" : 14, "byteOffset" : 0, "componentType" : 5126, "count" : 60, "type" : "VEC3", "max" : [2.544713595398207E-07, -3.251970052719116, 16.2406005859375], "min" : [-1.758925236572395E-06, -25.256101608276367, -21.278594970703125]}, {"bufferView" : 14, "byteOffset" : 12, "componentType" : 5126, "count" : 60, "type" : "VEC2", "max" : [1, -0.41352343559265137], "min" : [0, -1]}, {"bufferView" : 14, "byteOffset" : 20, "componentType" : 5126, "count" : 60, "type" : "VEC3", "max" : [1.0000044107437134, 0, 0], "min" : [0, 0, 0]}, {"bufferView" : 0, "byteOffset" : 78428, "componentType" : 5123, "count" : 4599, "type" : "SCALAR", "max" : [2123], "min" : [0]}, {"bufferView" : 15, "byteOffset" : 0, "componentType" : 5126, "count" : 2124, "type" : "VEC3", "max" : [-10.199999809265137, -3.251970052719116, 16.2406005859375], "min" : [-15.096244812011719, -25.256101608276367, -21.278594970703125]}, {"bufferView" : 15, "byteOffset" : 12, "componentType" : 5126, "count" : 2124, "type" : "VEC2", "max" : [1, -0], "min" : [0, -1]}, {"bufferView" : 15, "byteOffset" : 20, "componentType" : 5126, "count" : 2124, "type" : "VEC3", "max" : [0.38723012804985046, 1.0000044107437134, 0.9832007884979248], "min" : [-1.0000044107437134, -1.0000025033950806, -0.9999289512634277]}, {"bufferView" : 0, "byteOffset" : 87628, "componentType" : 5123, "count" : 174, "type" : "SCALAR", "max" : [59], "min" : [0]}, {"bufferView" : 16, "byteOffset" : 0, "componentType" : 5126, "count" : 60, "type" : "VEC3", "max" : [2.544713595398207E-07, -3.251970052719116, 16.2406005859375], "min" : [-1.758925236572395E-06, -25.256101608276367, -21.278594970703125]}, {"bufferView" : 16, "byteOffset" : 12, "componentType" : 5126, "count" : 60, "type" : "VEC2", "max" : [1, -0.41352343559265137], "min" : [0, -1]}, {"bufferView" : 16, "byteOffset" : 20, "componentType" : 5126, "count" : 60, "type" : "VEC3", "max" : [1.0000044107437134, 0, 0], "min" : [0, 0, 0]}, {"bufferView" : 0, "byteOffset" : 87976, "componentType" : 5123, "count" : 4599, "type" : "SCALAR", "max" : [2123], "min" : [0]}, {"bufferView" : 17, "byteOffset" : 0, "componentType" : 5126, "count" : 2124, "type" : "VEC3", "max" : [-10.199999809265137, -3.251970052719116, 16.2406005859375], "min" : [-15.096244812011719, -25.256101608276367, -21.278594970703125]}, {"bufferView" : 17, "byteOffset" : 12, "componentType" : 5126, "count" : 2124, "type" : "VEC2", "max" : [1, -0], "min" : [0, -1]}, {"bufferView" : 17, "byteOffset" : 20, "componentType" : 5126, "count" : 2124, "type" : "VEC3", "max" : [0.38723012804985046, 1.0000044107437134, 0.9832007884979248], "min" : [-1.0000044107437134, -1.0000025033950806, -0.9999289512634277]}, {"bufferView" : 0, "byteOffset" : 97176, "componentType" : 5123, "count" : 1908, "type" : "SCALAR", "max" : [451], "min" : [0]}, {"bufferView" : 18, "byteOffset" : 0, "componentType" : 5126, "count" : 452, "type" : "VEC3", "max" : [11.427103042602539, -4.570862770080566, 26.10930824279785], "min" : [0.02710210345685482, -28.221839904785156, -16.193328857421875]}, {"bufferView" : 18, "byteOffset" : 12, "componentType" : 5126, "count" : 452, "type" : "VEC2", "max" : [1, -0], "min" : [0, -1]}, {"bufferView" : 18, "byteOffset" : 20, "componentType" : 5126, "count" : 452, "type" : "VEC3", "max" : [0.9992552995681763, 1.0000044107437134, 0], "min" : [-0.9995113015174866, -0.9999976754188538, 0]}, {"bufferView" : 0, "byteOffset" : 100992, "componentType" : 5123, "count" : 1953, "type" : "SCALAR", "max" : [1097], "min" : [0]}, {"bufferView" : 19, "byteOffset" : 0, "componentType" : 5126, "count" : 1098, "type" : "VEC3", "max" : [0.027103178203105927, -4.570862293243408, 26.10930824279785], "min" : [-8.853082656860352, -28.221839904785156, -16.193328857421875]}, {"bufferView" : 19, "byteOffset" : 12, "componentType" : 5126, "count" : 1098, "type" : "VEC2", "max" : [1, -0], "min" : [0, -1]}, {"bufferView" : 19, "byteOffset" : 20, "componentType" : 5126, "count" : 1098, "type" : "VEC3", "max" : [0, 0.9999621510505676, 0.9992554187774658], "min" : [-1.0000044107437134, -0.9999890327453613, -1.0000044107437134]}, {"bufferView" : 0, "byteOffset" : 104900, "componentType" : 5123, "count" : 2577, "type" : "SCALAR", "max" : [1288], "min" : [0]}, {"bufferView" : 20, "byteOffset" : 0, "componentType" : 5126, "count" : 1289, "type" : "VEC3", "max" : [13.719061851501465, -4.570862770080566, 26.10930824279785], "min" : [11.427102088928223, -28.221839904785156, -16.193328857421875]}, {"bufferView" : 20, "byteOffset" : 12, "componentType" : 5126, "count" : 1289, "type" : "VEC2", "max" : [1, -0], "min" : [0, -1]}, {"bufferView" : 20, "byteOffset" : 20, "componentType" : 5126, "count" : 1289, "type" : "VEC3", "max" : [1.0000044107437134, 0.9555174112319946, 0.9521225094795227], "min" : [-0.07775384932756424, -0.9989653825759888, -0.9521527886390686]}, {"bufferView" : 0, "byteOffset" : 110056, "componentType" : 5123, "count" : 1953, "type" : "SCALAR", "max" : [1065], "min" : [0]}, {"bufferView" : 21, "byteOffset" : 0, "componentType" : 5126, "count" : 1066, "type" : "VEC3", "max" : [0.027103178203105927, -4.570862293243408, 26.10930824279785], "min" : [-8.853082656860352, -28.221839904785156, -16.193328857421875]}, {"bufferView" : 21, "byteOffset" : 12, "componentType" : 5126, "count" : 1066, "type" : "VEC2", "max" : [1, -0], "min" : [0, -1]}, {"bufferView" : 21, "byteOffset" : 20, "componentType" : 5126, "count" : 1066, "type" : "VEC3", "max" : [0, 0.9999621510505676, 0.9992554187774658], "min" : [-1.0000044107437134, -0.9999890327453613, -1.0000044107437134]}, {"bufferView" : 0, "byteOffset" : 113964, "componentType" : 5123, "count" : 2577, "type" : "SCALAR", "max" : [511], "min" : [0]}, {"bufferView" : 22, "byteOffset" : 0, "componentType" : 5126, "count" : 512, "type" : "VEC3", "max" : [13.719061851501465, -4.570862770080566, 26.10930824279785], "min" : [11.427102088928223, -28.221839904785156, -16.193328857421875]}], "asset" : {"generator" : "Aspose.3D 21.1", "version" : "2.0"}, "buffers" : [{"uri" : "buffer.bin", "byteLength" : 1936012}], "bufferViews" : [{"buffer" : 0, "byteOffset" : 0, "byteLength" : 119120, "target" : 34963}, {"buffer" : 0, "byteOffset" : 119124, "byteLength" : 36288, "byteStride" : 32, "target" : 34962}, {"buffer" : 0, "byteOffset" : 155416, "byteLength" : 23808, "byteStride" : 32, "target" : 34962}, {"buffer" : 0, "byteOffset" : 179228, "byteLength" : 19968, "byteStride" : 32, "target" : 34962}, {"buffer" : 0, "byteOffset" : 199200, "byteLength" : 106368, "byteStride" : 32, "target" : 34962}, {"buffer" : 0, "byteOffset" : 305572, "byteLength" : 106368, "byteStride" : 32, "target" : 34962}, {"buffer" : 0, "byteOffset" : 411944, "byteLength" : 398496, "byteStride" : 32, "target" : 34962}, {"buffer" : 0, "byteOffset" : 810444, "byteLength" : 398496, "byteStride" : 32, "target" : 34962}, {"buffer" : 0, "byteOffset" : 1208944, "byteLength" : 15552, "byteStride" : 32, "target" : 34962}, {"buffer" : 0, "byteOffset" : 1224500, "byteLength" : 6528, "byteStride" : 32, "target" : 34962}, {"buffer" : 0, "byteOffset" : 1231032, "byteLength" : 59616, "byteStride" : 32, "target" : 34962}, {"buffer" : 0, "byteOffset" : 1290652, "byteLength" : 6528, "byteStride" : 32, "target" : 34962}, {"buffer" : 0, "byteOffset" : 1297184, "byteLength" : 22356, "byteStride" : 12, "target" : 34962}, {"buffer" : 0, "byteOffset" : 1319544, "byteLength" : 11520, "byteStride" : 32, "target" : 34962}, {"buffer" : 0, "byteOffset" : 1331068, "byteLength" : 5568, "byteStride" : 32, "target" : 34962}, {"buffer" : 0, "byteOffset" : 1336640, "byteLength" : 147168, "byteStride" : 32, "target" : 34962}, {"buffer" : 0, "byteOffset" : 1483812, "byteLength" : 5568, "byteStride" : 32, "target" : 34962}, {"buffer" : 0, "byteOffset" : 1489384, "byteLength" : 147168, "byteStride" : 32, "target" : 34962}, {"buffer" : 0, "byteOffset" : 1636556, "byteLength" : 61056, "byteStride" : 32, "target" : 34962}, {"buffer" : 0, "byteOffset" : 1697616, "byteLength" : 62496, "byteStride" : 32, "target" : 34962}, {"buffer" : 0, "byteOffset" : 1760116, "byteLength" : 82464, "byteStride" : 32, "target" : 34962}, {"buffer" : 0, "byteOffset" : 1842584, "byteLength" : 62496, "byteStride" : 32, "target" : 34962}, {"buffer" : 0, "byteOffset" : 1905084, "byteLength" : 30924, "byteStride" : 12, "target" : 34962}], "meshes" : [{"primitives" : [{"attributes" : {"POSITION" : 1, "TEXCOORD_0" : 2, "NORMAL" : 3}, "indices" : 0, "mode" : 4}]}, {"primitives" : [{"attributes" : {"POSITION" : 5, "TEXCOORD_0" : 6, "NORMAL" : 7}, "indices" : 4, "mode" : 4}]}, {"primitives" : [{"attributes" : {"POSITION" : 9, "TEXCOORD_0" : 10, "NORMAL" : 11}, "indices" : 8, "mode" : 4}]}, {"primitives" : [{"attributes" : {"POSITION" : 13, "TEXCOORD_0" : 14, "NORMAL" : 15}, "indices" : 12, "mode" : 4}]}, {"primitives" : [{"attributes" : {"POSITION" : 17, "TEXCOORD_0" : 18, "NORMAL" : 19}, "indices" : 16, "mode" : 4}]}, {"primitives" : [{"attributes" : {"POSITION" : 21, "TEXCOORD_0" : 22, "NORMAL" : 23}, "indices" : 20, "mode" : 4}]}, {"primitives" : [{"attributes" : {"POSITION" : 25, "TEXCOORD_0" : 26, "NORMAL" : 27}, "indices" : 24, "mode" : 4}]}, {"primitives" : [{"attributes" : {"POSITION" : 29, "TEXCOORD_0" : 30, "NORMAL" : 31}, "indices" : 28, "mode" : 4}]}, {"primitives" : [{"attributes" : {"POSITION" : 33, "TEXCOORD_0" : 34, "NORMAL" : 35}, "indices" : 32, "mode" : 4}]}, {"primitives" : [{"attributes" : {"POSITION" : 37, "TEXCOORD_0" : 38, "NORMAL" : 39}, "indices" : 36, "mode" : 4}]}, {"primitives" : [{"attributes" : {"POSITION" : 41, "TEXCOORD_0" : 42, "NORMAL" : 43}, "indices" : 40, "mode" : 4}]}, {"primitives" : [{"attributes" : {"POSITION" : 45}, "indices" : 44, "mode" : 4}]}, {"primitives" : [{"attributes" : {"POSITION" : 47, "TEXCOORD_0" : 48, "NORMAL" : 49}, "indices" : 46, "mode" : 4}]}, {"primitives" : [{"attributes" : {"POSITION" : 51, "TEXCOORD_0" : 52, "NORMAL" : 53}, "indices" : 50, "mode" : 4}]}, {"primitives" : [{"attributes" : {"POSITION" : 55, "TEXCOORD_0" : 56, "NORMAL" : 57}, "indices" : 54, "mode" : 4}]}, {"primitives" : [{"attributes" : {"POSITION" : 59, "TEXCOORD_0" : 60, "NORMAL" : 61}, "indices" : 58, "mode" : 4}]}, {"primitives" : [{"attributes" : {"POSITION" : 63, "TEXCOORD_0" : 64, "NORMAL" : 65}, "indices" : 62, "mode" : 4}]}, {"primitives" : [{"attributes" : {"POSITION" : 67, "TEXCOORD_0" : 68, "NORMAL" : 69}, "indices" : 66, "mode" : 4}]}, {"primitives" : [{"attributes" : {"POSITION" : 71, "TEXCOORD_0" : 72, "NORMAL" : 73}, "indices" : 70, "mode" : 4}]}, {"primitives" : [{"attributes" : {"POSITION" : 75, "TEXCOORD_0" : 76, "NORMAL" : 77}, "indices" : 74, "mode" : 4}]}, {"primitives" : [{"attributes" : {"POSITION" : 79, "TEXCOORD_0" : 80, "NORMAL" : 81}, "indices" : 78, "mode" : 4}]}, {"primitives" : [{"attributes" : {"POSITION" : 83}, "indices" : 82, "mode" : 4}]}], "nodes" : [{"mesh" : 0, "name" : "Cylinder.1"}, {"mesh" : 1, "name" : "Cylinder"}, {"mesh" : 2, "name" : "Cube"}, {"mesh" : 3, "name" : "Boole.1"}, {"mesh" : 4, "name" : "Boole.1_1"}, {"mesh" : 5, "name" : "Cube_1"}, {"mesh" : 6, "name" : "Cube_2"}, {"mesh" : 7, "name" : "Extrude.2"}, {"mesh" : 8, "name" : "Cap_1"}, {"mesh" : 9, "name" : "Cap_2"}, {"mesh" : 10, "name" : "Cap_1_1"}, {"mesh" : 11, "name" : "Cap_2_1"}, {"mesh" : 12, "name" : "Extrude.1"}, {"mesh" : 13, "name" : "Cap_1_2"}, {"mesh" : 14, "name" : "Cap_2_2"}, {"mesh" : 15, "name" : "Cap_1_3"}, {"mesh" : 16, "name" : "Cap_2_3"}, {"mesh" : 17, "name" : "Extrude"}, {"mesh" : 18, "name" : "Cap_1_4"}, {"mesh" : 19, "name" : "Cap_2_4"}, {"mesh" : 20, "name" : "Cap_1_5"}, {"mesh" : 21, "name" : "Cap_2_5"}], "scene" : 0, "scenes" : [{"nodes" : [0, 1, 2, 3, 4, 5, 6, 7, 8, 9, 10, 11, 12, 13, 14, 15, 16, 17, 18, 19, 20, 21]}]}