{"accessors" : [{"bufferView" : 0, "byteOffset" : 0, "componentType" : 5123, "count" : 382128, "type" : "SCALAR", "max" : [63829], "min" : [0]}, {"bufferView" : 1, "byteOffset" : 0, "componentType" : 5126, "count" : 63830, "type" : "VEC3", "max" : [43.476600646972656, 33.20119857788086, 79.37329864501953], "min" : [-41.611900329589844, -22.778600692749023, 0.020800000056624413]}, {"bufferView" : 1, "byteOffset" : 12, "componentType" : 5126, "count" : 63830, "type" : "VEC3", "max" : [1.0000044107437134, 1.0000044107437134, 1.0000044107437134], "min" : [-1.0000044107437134, -1.0000044107437134, -1.0000044107437134]}], "asset" : {"generator" : "Aspose.3D 21.1", "version" : "2.0"}, "buffers" : [{"uri" : "buffer.bin", "byteLength" : 9935336}], "bufferViews" : [{"buffer" : 0, "byteOffset" : 0, "byteLength" : 764256, "target" : 34963}, {"buffer" : 0, "byteOffset" : 764260, "byteLength" : 9171072, "byteStride" : 24, "target" : 34962}], "meshes" : [{"primitives" : [{"attributes" : {"POSITION" : 1, "NORMAL" : 2}, "indices" : 0, "mode" : 4}]}], "nodes" : [{"mesh" : 0, "name" : "16561_6_Inch_Dewatering_Pump"}], "scene" : 0, "scenes" : [{"nodes" : [0]}]}