{"accessors" : [{"bufferView" : 0, "byteOffset" : 0, "componentType" : 5123, "count" : 6, "type" : "SCALAR", "max" : [3], "min" : [0]}, {"bufferView" : 1, "byteOffset" : 0, "componentType" : 5126, "count" : 4, "type" : "VEC3", "max" : [-43, 78, 19], "min" : [-43, 38.16542053222656, -55]}, {"bufferView" : 1, "byteOffset" : 12, "componentType" : 5126, "count" : 4, "type" : "VEC2", "max" : [1.0223549604415894, 0.15723729133605957], "min" : [-0.02235502004623413, -1.1572374105453491]}, {"bufferView" : 0, "byteOffset" : 12, "componentType" : 5123, "count" : 30168, "type" : "SCALAR", "max" : [20022], "min" : [0]}, {"bufferView" : 2, "byteOffset" : 0, "componentType" : 5126, "count" : 20023, "type" : "VEC3", "max" : [96.5, 126.50000762939453, 195], "min" : [-96.5, -126.5, -195]}, {"bufferView" : 2, "byteOffset" : 12, "componentType" : 5126, "count" : 20023, "type" : "VEC2", "max" : [0.9995005130767822, -0.0004994571208953857], "min" : [0.0004994571208953857, -0.9995005130767822]}], "asset" : {"generator" : "Aspose.3D 21.1", "version" : "2.0"}, "buffers" : [{"uri" : "buffer.bin", "byteLength" : 663840}], "bufferViews" : [{"buffer" : 0, "byteOffset" : 0, "byteLength" : 60348, "target" : 34963}, {"buffer" : 0, "byteOffset" : 60352, "byteLength" : 120, "byteStride" : 20, "target" : 34962}, {"buffer" : 0, "byteOffset" : 60476, "byteLength" : 603360, "byteStride" : 20, "target" : 34962}], "images" : [{"uri" : "EBARA_LO.JPG"}, {"uri" : "EBARA_LO.JPG"}], "materials" : [{"pbrMetallicRoughness" : {"baseColorFactor" : [0.5882352941176471, 0.5882352941176471, 0.5882352941176471, 1], "baseColorTexture" : {"index" : 1, "texCoord" : 0}, "metallicFactor" : 0, "roughnessFactor" : 0}, "normalTexture" : {"index" : 0, "texCoord" : 0, "scale" : 1}, "emissiveFactor" : [0, 0, 0], "alphaMode" : "OPAQUE", "doubleSided" : false}, {"pbrMetallicRoughness" : {"baseColorFactor" : [0.7098039215686275, 0.788235294117647, 0.7176470588235294, 1], "metallicFactor" : 0, "roughnessFactor" : 0}, "emissiveFactor" : [0, 0, 0], "alphaMode" : "OPAQUE", "doubleSided" : false}], "meshes" : [{"primitives" : [{"attributes" : {"POSITION" : 1, "TEXCOORD_0" : 2}, "indices" : 0, "material" : 0, "mode" : 4}]}, {"primitives" : [{"attributes" : {"POSITION" : 4, "TEXCOORD_0" : 5}, "indices" : 3, "material" : 1, "mode" : 4}]}], "nodes" : [{"matrix" : [-1, 0, 0, 0, 0, 1, -4.371138828673793E-08, 0, 0, -4.371138828673793E-08, -1, 0, 0, 126.70669555664062, 0, 1], "mesh" : 0, "name" : "Mesh01"}, {"matrix" : [-1, 0, 0, 0, 0, 1, -4.371138828673793E-08, 0, 0, -4.371138828673793E-08, -1, 0, 0, 126.70669555664062, 0, 1], "mesh" : 1, "name" : "DWO_300"}], "samplers" : [{"magFilter" : 9729, "minFilter" : 9729, "wrapS" : 10497, "wrapT" : 10497}, {"magFilter" : 9729, "minFilter" : 9729, "wrapS" : 10497, "wrapT" : 10497}], "scene" : 0, "scenes" : [{"nodes" : [0, 1]}], "textures" : [{"sampler" : 0, "source" : 0}, {"sampler" : 1, "source" : 1}]}